<?xml version="1.0" encoding="UTF-8" standalone="no"?>
<!DOCTYPE svg PUBLIC "-//W3C//DTD SVG 1.1//EN"
 "http://www.w3.org/Graphics/SVG/1.1/DTD/svg11.dtd">
<!-- Generated by graphviz version 2.36.0 (20140111.2315)
 -->
<!-- Title: controllers_diagram Pages: 1 -->
<svg width="780pt" height="720pt"
 viewBox="0.00 0.00 780.00 720.00" xmlns="http://www.w3.org/2000/svg" xmlns:xlink="http://www.w3.org/1999/xlink">
<g id="graph0" class="graph" transform="scale(1 1) rotate(0) translate(4 716)">
<title>controllers_diagram</title>
<polygon fill="none" stroke="none" points="-4,4 -4,-716 776,-716 776,4 -4,4"/>
<!-- _diagram_info -->
<g id="node1" class="node"><title>_diagram_info</title>
<text text-anchor="start" x="458" y="-117.6" font-family="Times,serif" font-size="13.00">Controllers diagram</text>
<text text-anchor="start" x="458" y="-103.6" font-family="Times,serif" font-size="13.00">Date: Jan 07 2019 &#45; 23:36</text>
<text text-anchor="start" x="458" y="-89.6" font-family="Times,serif" font-size="13.00">Migration version: 20181130211550</text>
<text text-anchor="start" x="458" y="-75.6" font-family="Times,serif" font-size="13.00">Generated by RailRoady 1.5.3</text>
<text text-anchor="start" x="458" y="-61.6" font-family="Times,serif" font-size="13.00">http://railroady.prestonlee.com</text>
</g>
<!-- ExperimentsController -->
<g id="node2" class="node"><title>ExperimentsController</title>
<path fill="none" stroke="black" d="M192,-144.5C192,-144.5 394,-144.5 394,-144.5 400,-144.5 406,-150.5 406,-156.5 406,-156.5 406,-435.5 406,-435.5 406,-441.5 400,-447.5 394,-447.5 394,-447.5 192,-447.5 192,-447.5 186,-447.5 180,-441.5 180,-435.5 180,-435.5 180,-156.5 180,-156.5 180,-150.5 186,-144.5 192,-144.5"/>
<text text-anchor="middle" x="293" y="-432.3" font-family="Times,serif" font-size="14.00">ExperimentsController</text>
<polyline fill="none" stroke="black" points="180,-424.5 406,-424.5 "/>
<text text-anchor="start" x="188" y="-409.3" font-family="Times,serif" font-size="14.00">comments_page</text>
<text text-anchor="start" x="188" y="-394.3" font-family="Times,serif" font-size="14.00">correctness_analysis</text>
<text text-anchor="start" x="188" y="-379.3" font-family="Times,serif" font-size="14.00">create</text>
<text text-anchor="start" x="188" y="-364.3" font-family="Times,serif" font-size="14.00">create_messages</text>
<text text-anchor="start" x="188" y="-349.3" font-family="Times,serif" font-size="14.00">edit</text>
<text text-anchor="start" x="188" y="-334.3" font-family="Times,serif" font-size="14.00">index</text>
<text text-anchor="start" x="188" y="-319.3" font-family="Times,serif" font-size="14.00">messages_page</text>
<text text-anchor="start" x="188" y="-304.3" font-family="Times,serif" font-size="14.00">new</text>
<text text-anchor="start" x="188" y="-289.3" font-family="Times,serif" font-size="14.00">parameterized_slug</text>
<text text-anchor="start" x="188" y="-274.3" font-family="Times,serif" font-size="14.00">send_to_buffer</text>
<text text-anchor="start" x="188" y="-259.3" font-family="Times,serif" font-size="14.00">show</text>
<text text-anchor="start" x="188" y="-244.3" font-family="Times,serif" font-size="14.00">update</text>
<polyline fill="none" stroke="black" points="180,-236.5 406,-236.5 "/>
<polyline fill="none" stroke="black" points="180,-212.5 406,-212.5 "/>
<text text-anchor="start" x="188" y="-197.3" font-family="Times,serif" font-size="14.00">_layout</text>
<text text-anchor="start" x="188" y="-182.3" font-family="Times,serif" font-size="14.00">experiment_params</text>
<text text-anchor="start" x="188" y="-167.3" font-family="Times,serif" font-size="14.00">set_click_meter_groups_and_domains</text>
<text text-anchor="start" x="188" y="-152.3" font-family="Times,serif" font-size="14.00">set_experiment</text>
</g>
<!-- SocialMediaProfilesController -->
<g id="node3" class="node"><title>SocialMediaProfilesController</title>
<path fill="none" stroke="black" d="M462,-162.5C462,-162.5 621,-162.5 621,-162.5 627,-162.5 633,-168.5 633,-174.5 633,-174.5 633,-318.5 633,-318.5 633,-324.5 627,-330.5 621,-330.5 621,-330.5 462,-330.5 462,-330.5 456,-330.5 450,-324.5 450,-318.5 450,-318.5 450,-174.5 450,-174.5 450,-168.5 456,-162.5 462,-162.5"/>
<text text-anchor="middle" x="541.5" y="-315.3" font-family="Times,serif" font-size="14.00">SocialMediaProfilesController</text>
<polyline fill="none" stroke="black" points="450,-307.5 633,-307.5 "/>
<text text-anchor="start" x="458" y="-292.3" font-family="Times,serif" font-size="14.00">edit</text>
<text text-anchor="start" x="458" y="-277.3" font-family="Times,serif" font-size="14.00">index</text>
<text text-anchor="start" x="458" y="-262.3" font-family="Times,serif" font-size="14.00">sync_with_buffer</text>
<text text-anchor="start" x="458" y="-247.3" font-family="Times,serif" font-size="14.00">update</text>
<polyline fill="none" stroke="black" points="450,-239.5 633,-239.5 "/>
<polyline fill="none" stroke="black" points="450,-215.5 633,-215.5 "/>
<text text-anchor="start" x="458" y="-200.3" font-family="Times,serif" font-size="14.00">_layout</text>
<text text-anchor="start" x="458" y="-185.3" font-family="Times,serif" font-size="14.00">set_social_media_profile</text>
<text text-anchor="start" x="458" y="-170.3" font-family="Times,serif" font-size="14.00">social_media_profile_params</text>
</g>
<!-- HomeController -->
<g id="node4" class="node"><title>HomeController</title>
<path fill="none" stroke="black" d="M678,-162.5C678,-162.5 760,-162.5 760,-162.5 766,-162.5 772,-168.5 772,-174.5 772,-174.5 772,-243.5 772,-243.5 772,-249.5 766,-255.5 760,-255.5 760,-255.5 678,-255.5 678,-255.5 672,-255.5 666,-249.5 666,-243.5 666,-243.5 666,-174.5 666,-174.5 666,-168.5 672,-162.5 678,-162.5"/>
<text text-anchor="middle" x="719" y="-240.3" font-family="Times,serif" font-size="14.00">HomeController</text>
<polyline fill="none" stroke="black" points="666,-232.5 772,-232.5 "/>
<text text-anchor="start" x="674" y="-217.3" font-family="Times,serif" font-size="14.00">index</text>
<polyline fill="none" stroke="black" points="666,-209.5 772,-209.5 "/>
<polyline fill="none" stroke="black" points="666,-185.5 772,-185.5 "/>
<text text-anchor="start" x="674" y="-170.3" font-family="Times,serif" font-size="14.00">_layout</text>
</g>
<!-- FacebookSessionsController -->
<g id="node5" class="node"><title>FacebookSessionsController</title>
<path fill="none" stroke="black" d="M30,-594.5C30,-594.5 177,-594.5 177,-594.5 183,-594.5 189,-600.5 189,-606.5 189,-606.5 189,-675.5 189,-675.5 189,-681.5 183,-687.5 177,-687.5 177,-687.5 30,-687.5 30,-687.5 24,-687.5 18,-681.5 18,-675.5 18,-675.5 18,-606.5 18,-606.5 18,-600.5 24,-594.5 30,-594.5"/>
<text text-anchor="middle" x="103.5" y="-672.3" font-family="Times,serif" font-size="14.00">FacebookSessionsController</text>
<polyline fill="none" stroke="black" points="18,-664.5 189,-664.5 "/>
<text text-anchor="start" x="26" y="-649.3" font-family="Times,serif" font-size="14.00">facebook_create</text>
<polyline fill="none" stroke="black" points="18,-641.5 189,-641.5 "/>
<polyline fill="none" stroke="black" points="18,-617.5 189,-617.5 "/>
<text text-anchor="start" x="26" y="-602.3" font-family="Times,serif" font-size="14.00">_layout</text>
</g>
<!-- DataDictionariesController -->
<g id="node6" class="node"><title>DataDictionariesController</title>
<path fill="none" stroke="black" d="M570,-558.5C570,-558.5 710,-558.5 710,-558.5 716,-558.5 722,-564.5 722,-570.5 722,-570.5 722,-699.5 722,-699.5 722,-705.5 716,-711.5 710,-711.5 710,-711.5 570,-711.5 570,-711.5 564,-711.5 558,-705.5 558,-699.5 558,-699.5 558,-570.5 558,-570.5 558,-564.5 564,-558.5 570,-558.5"/>
<text text-anchor="middle" x="640" y="-696.3" font-family="Times,serif" font-size="14.00">DataDictionariesController</text>
<polyline fill="none" stroke="black" points="558,-688.5 722,-688.5 "/>
<text text-anchor="start" x="566" y="-673.3" font-family="Times,serif" font-size="14.00">edit</text>
<text text-anchor="start" x="566" y="-658.3" font-family="Times,serif" font-size="14.00">show</text>
<text text-anchor="start" x="566" y="-643.3" font-family="Times,serif" font-size="14.00">update</text>
<polyline fill="none" stroke="black" points="558,-635.5 722,-635.5 "/>
<polyline fill="none" stroke="black" points="558,-611.5 722,-611.5 "/>
<text text-anchor="start" x="566" y="-596.3" font-family="Times,serif" font-size="14.00">_layout</text>
<text text-anchor="start" x="566" y="-581.3" font-family="Times,serif" font-size="14.00">data_dictionary_params</text>
<text text-anchor="start" x="566" y="-566.3" font-family="Times,serif" font-size="14.00">set_data_dictionary</text>
</g>
<!-- AnalyticsFilesController -->
<g id="node7" class="node"><title>AnalyticsFilesController</title>
<path fill="none" stroke="black" d="M12,-450.5C12,-450.5 138,-450.5 138,-450.5 144,-450.5 150,-456.5 150,-462.5 150,-462.5 150,-546.5 150,-546.5 150,-552.5 144,-558.5 138,-558.5 138,-558.5 12,-558.5 12,-558.5 6,-558.5 0,-552.5 0,-546.5 0,-546.5 0,-462.5 0,-462.5 0,-456.5 6,-450.5 12,-450.5"/>
<text text-anchor="middle" x="75" y="-543.3" font-family="Times,serif" font-size="14.00">AnalyticsFilesController</text>
<polyline fill="none" stroke="black" points="0,-535.5 150,-535.5 "/>
<text text-anchor="start" x="8" y="-520.3" font-family="Times,serif" font-size="14.00">process_all_files</text>
<text text-anchor="start" x="8" y="-505.3" font-family="Times,serif" font-size="14.00">update</text>
<polyline fill="none" stroke="black" points="0,-497.5 150,-497.5 "/>
<polyline fill="none" stroke="black" points="0,-473.5 150,-473.5 "/>
<text text-anchor="start" x="8" y="-458.3" font-family="Times,serif" font-size="14.00">_layout</text>
</g>
<!-- ApplicationController -->
<g id="node8" class="node"><title>ApplicationController</title>
<path fill="none" stroke="black" d="M12,-126.5C12,-126.5 124,-126.5 124,-126.5 130,-126.5 136,-132.5 136,-138.5 136,-138.5 136,-222.5 136,-222.5 136,-228.5 130,-234.5 124,-234.5 124,-234.5 12,-234.5 12,-234.5 6,-234.5 0,-228.5 0,-222.5 0,-222.5 0,-138.5 0,-138.5 0,-132.5 6,-126.5 12,-126.5"/>
<text text-anchor="middle" x="68" y="-219.3" font-family="Times,serif" font-size="14.00">ApplicationController</text>
<polyline fill="none" stroke="black" points="0,-211.5 136,-211.5 "/>
<text text-anchor="start" x="8" y="-196.3" font-family="Times,serif" font-size="14.00">set_timezone</text>
<polyline fill="none" stroke="black" points="0,-188.5 136,-188.5 "/>
<polyline fill="none" stroke="black" points="0,-164.5 136,-164.5 "/>
<text text-anchor="start" x="8" y="-149.3" font-family="Times,serif" font-size="14.00">_layout</text>
<text text-anchor="start" x="8" y="-134.3" font-family="Times,serif" font-size="14.00">user_not_authorized</text>
</g>
<!-- MessageTemplatesController -->
<g id="node9" class="node"><title>MessageTemplatesController</title>
<path fill="none" stroke="black" d="M462,-360.5C462,-360.5 641,-360.5 641,-360.5 647,-360.5 653,-366.5 653,-372.5 653,-372.5 653,-501.5 653,-501.5 653,-507.5 647,-513.5 641,-513.5 641,-513.5 462,-513.5 462,-513.5 456,-513.5 450,-507.5 450,-501.5 450,-501.5 450,-372.5 450,-372.5 450,-366.5 456,-360.5 462,-360.5"/>
<text text-anchor="middle" x="551.5" y="-498.3" font-family="Times,serif" font-size="14.00">MessageTemplatesController</text>
<polyline fill="none" stroke="black" points="450,-490.5 653,-490.5 "/>
<text text-anchor="start" x="458" y="-475.3" font-family="Times,serif" font-size="14.00">add_image_to_image_pool</text>
<text text-anchor="start" x="458" y="-460.3" font-family="Times,serif" font-size="14.00">get_image_selections</text>
<text text-anchor="start" x="458" y="-445.3" font-family="Times,serif" font-size="14.00">import</text>
<text text-anchor="start" x="458" y="-430.3" font-family="Times,serif" font-size="14.00">remove_image_from_image_pool</text>
<polyline fill="none" stroke="black" points="450,-422.5 653,-422.5 "/>
<polyline fill="none" stroke="black" points="450,-398.5 653,-398.5 "/>
<text text-anchor="start" x="458" y="-383.3" font-family="Times,serif" font-size="14.00">_layout</text>
<text text-anchor="start" x="458" y="-368.3" font-family="Times,serif" font-size="14.00">set_message_template</text>
</g>
<!-- CommentsController -->
<g id="node10" class="node"><title>CommentsController</title>
<path fill="none" stroke="black" d="M192,-18.5C192,-18.5 300,-18.5 300,-18.5 306,-18.5 312,-24.5 312,-30.5 312,-30.5 312,-99.5 312,-99.5 312,-105.5 306,-111.5 300,-111.5 300,-111.5 192,-111.5 192,-111.5 186,-111.5 180,-105.5 180,-99.5 180,-99.5 180,-30.5 180,-30.5 180,-24.5 186,-18.5 192,-18.5"/>
<text text-anchor="middle" x="246" y="-96.3" font-family="Times,serif" font-size="14.00">CommentsController</text>
<polyline fill="none" stroke="black" points="180,-88.5 312,-88.5 "/>
<text text-anchor="start" x="188" y="-73.3" font-family="Times,serif" font-size="14.00">edit_codes</text>
<polyline fill="none" stroke="black" points="180,-65.5 312,-65.5 "/>
<polyline fill="none" stroke="black" points="180,-41.5 312,-41.5 "/>
<text text-anchor="start" x="188" y="-26.3" font-family="Times,serif" font-size="14.00">_layout</text>
</g>
<!-- MessagesController -->
<g id="node11" class="node"><title>MessagesController</title>
<path fill="none" stroke="black" d="M30,-270.5C30,-270.5 131,-270.5 131,-270.5 137,-270.5 143,-276.5 143,-282.5 143,-282.5 143,-396.5 143,-396.5 143,-402.5 137,-408.5 131,-408.5 131,-408.5 30,-408.5 30,-408.5 24,-408.5 18,-402.5 18,-396.5 18,-396.5 18,-282.5 18,-282.5 18,-276.5 24,-270.5 30,-270.5"/>
<text text-anchor="middle" x="80.5" y="-393.3" font-family="Times,serif" font-size="14.00">MessagesController</text>
<polyline fill="none" stroke="black" points="18,-385.5 143,-385.5 "/>
<text text-anchor="start" x="26" y="-370.3" font-family="Times,serif" font-size="14.00">edit_campaign_id</text>
<text text-anchor="start" x="26" y="-355.3" font-family="Times,serif" font-size="14.00">edit_note</text>
<text text-anchor="start" x="26" y="-340.3" font-family="Times,serif" font-size="14.00">new_campaign_id</text>
<text text-anchor="start" x="26" y="-325.3" font-family="Times,serif" font-size="14.00">new_note</text>
<polyline fill="none" stroke="black" points="18,-317.5 143,-317.5 "/>
<polyline fill="none" stroke="black" points="18,-293.5 143,-293.5 "/>
<text text-anchor="start" x="26" y="-278.3" font-family="Times,serif" font-size="14.00">_layout</text>
</g>
<!-- ImagesController -->
<g id="node12" class="node"><title>ImagesController</title>
<path fill="none" stroke="black" d="M228,-486.5C228,-486.5 408,-486.5 408,-486.5 414,-486.5 420,-492.5 420,-498.5 420,-498.5 420,-612.5 420,-612.5 420,-618.5 414,-624.5 408,-624.5 408,-624.5 228,-624.5 228,-624.5 222,-624.5 216,-618.5 216,-612.5 216,-612.5 216,-498.5 216,-498.5 216,-492.5 222,-486.5 228,-486.5"/>
<text text-anchor="middle" x="318" y="-609.3" font-family="Times,serif" font-size="14.00">ImagesController</text>
<polyline fill="none" stroke="black" points="216,-601.5 420,-601.5 "/>
<text text-anchor="start" x="224" y="-586.3" font-family="Times,serif" font-size="14.00">add</text>
<text text-anchor="start" x="224" y="-571.3" font-family="Times,serif" font-size="14.00">check_validity_for_instagram_ads</text>
<text text-anchor="start" x="224" y="-556.3" font-family="Times,serif" font-size="14.00">edit_codes</text>
<text text-anchor="start" x="224" y="-541.3" font-family="Times,serif" font-size="14.00">import</text>
<polyline fill="none" stroke="black" points="216,-533.5 420,-533.5 "/>
<polyline fill="none" stroke="black" points="216,-509.5 420,-509.5 "/>
<text text-anchor="start" x="224" y="-494.3" font-family="Times,serif" font-size="14.00">_layout</text>
</g>
<!-- SessionsController -->
<g id="node13" class="node"><title>SessionsController</title>
<path fill="none" stroke="black" d="M12,-0.5C12,-0.5 107,-0.5 107,-0.5 113,-0.5 119,-6.5 119,-12.5 119,-12.5 119,-81.5 119,-81.5 119,-87.5 113,-93.5 107,-93.5 107,-93.5 12,-93.5 12,-93.5 6,-93.5 0,-87.5 0,-81.5 0,-81.5 0,-12.5 0,-12.5 0,-6.5 6,-0.5 12,-0.5"/>
<text text-anchor="middle" x="59.5" y="-78.3" font-family="Times,serif" font-size="14.00">SessionsController</text>
<polyline fill="none" stroke="black" points="0,-70.5 119,-70.5 "/>
<text text-anchor="start" x="8" y="-55.3" font-family="Times,serif" font-size="14.00">facebook_create</text>
<polyline fill="none" stroke="black" points="0,-47.5 119,-47.5 "/>
<polyline fill="none" stroke="black" points="0,-23.5 119,-23.5 "/>
<text text-anchor="start" x="8" y="-8.3" font-family="Times,serif" font-size="14.00">_layout</text>
</g>
</g>
</svg>
