<?xml version="1.0" encoding="UTF-8" standalone="no"?>
<!DOCTYPE svg PUBLIC "-//W3C//DTD SVG 1.1//EN"
 "http://www.w3.org/Graphics/SVG/1.1/DTD/svg11.dtd">
<!-- Generated by graphviz version 2.36.0 (20140111.2315)
 -->
<!-- Title: models_diagram Pages: 1 -->
<svg width="2799pt" height="438pt"
 viewBox="0.00 0.00 2799.43 438.00" xmlns="http://www.w3.org/2000/svg" xmlns:xlink="http://www.w3.org/1999/xlink">
<g id="graph0" class="graph" transform="scale(1 1) rotate(0) translate(4 434)">
<title>models_diagram</title>
<polygon fill="none" stroke="none" points="-4,4 -4,-434 2795.43,-434 2795.43,4 -4,4"/>
<!-- _diagram_info -->
<g id="node1" class="node"><title>_diagram_info</title>
<text text-anchor="start" x="1530.43" y="-415.6" font-family="Times,serif" font-size="13.00">Models diagram</text>
<text text-anchor="start" x="1530.43" y="-401.6" font-family="Times,serif" font-size="13.00">Date: Jan 07 2019 &#45; 23:36</text>
<text text-anchor="start" x="1530.43" y="-387.6" font-family="Times,serif" font-size="13.00">Migration version: 20181130211550</text>
<text text-anchor="start" x="1530.43" y="-373.6" font-family="Times,serif" font-size="13.00">Generated by RailRoady 1.5.3</text>
<text text-anchor="start" x="1530.43" y="-359.6" font-family="Times,serif" font-size="13.00">http://railroady.prestonlee.com</text>
</g>
<!-- Image -->
<g id="node2" class="node"><title>Image</title>
<ellipse fill="none" stroke="black" cx="534.431" cy="-282" rx="33.2209" ry="18"/>
<text text-anchor="middle" x="534.431" y="-278.3" font-family="Times,serif" font-size="14.00">Image</text>
</g>
<!-- Image&#45;&gt;Image -->
<g id="edge8" class="edge"><title>Image&#45;&gt;Image</title>
<path fill="none" stroke="#d853d1" d="M572.296,-289.929C579.953,-289.058 585.431,-286.415 585.431,-282 585.431,-277.953 580.828,-275.395 574.163,-274.326"/>
<ellipse fill="none" stroke="#d853d1" cx="568.033" cy="-290.074" rx="4" ry="4"/>
<polygon fill="#d853d1" stroke="#d853d1" points="574.021,-274.318 564.272,-269.297 569.028,-274.055 564.035,-273.791 564.035,-273.791 564.035,-273.791 569.028,-274.055 563.798,-278.285 574.021,-274.318 574.021,-274.318"/>
<text text-anchor="middle" x="612.931" y="-278.3" font-family="Times,serif" font-size="14.00">duplicates</text>
</g>
<!-- Message -->
<g id="node15" class="node"><title>Message</title>
<ellipse fill="none" stroke="black" cx="1011.43" cy="-194" rx="42.3701" ry="18"/>
<text text-anchor="middle" x="1011.43" y="-190.3" font-family="Times,serif" font-size="14.00">Message</text>
</g>
<!-- Image&#45;&gt;Message -->
<g id="edge7" class="edge"><title>Image&#45;&gt;Message</title>
<path fill="none" stroke="#483f8f" d="M555.042,-260.034C567.167,-249.086 583.425,-236.624 600.431,-230 664.492,-205.048 863.656,-197.837 959.229,-195.79"/>
<ellipse fill="none" stroke="#483f8f" cx="552.021" cy="-262.852" rx="4.00002" ry="4.00002"/>
<polygon fill="#483f8f" stroke="#483f8f" points="959.254,-195.79 969.343,-200.086 964.253,-195.688 969.252,-195.587 969.252,-195.587 969.252,-195.587 964.253,-195.688 969.16,-191.087 959.254,-195.79 959.254,-195.79"/>
</g>
<!-- ActsAsTaggableOn::Tagging -->
<g id="node24" class="node"><title>ActsAsTaggableOn::Tagging</title>
<ellipse fill="none" stroke="black" cx="350.431" cy="-18" rx="114.085" ry="18"/>
<text text-anchor="middle" x="350.431" y="-14.3" font-family="Times,serif" font-size="14.00">ActsAsTaggableOn::Tagging</text>
</g>
<!-- Image&#45;&gt;ActsAsTaggableOn::Tagging -->
<g id="edge1" class="edge"><title>Image&#45;&gt;ActsAsTaggableOn::Tagging</title>
<path fill="none" stroke="#8e48cb" d="M493.328,-279.368C399.504,-275.349 175.408,-263.973 146.431,-246 107.435,-221.813 104.9,-202.161 92.4305,-158 79.1459,-110.951 136.425,-60.7745 146.431,-54 162.993,-42.7865 203.726,-34.7071 244.477,-29.1564"/>
<ellipse fill="none" stroke="#8e48cb" cx="497.462" cy="-279.543" rx="4" ry="4"/>
<polygon fill="#8e48cb" stroke="#8e48cb" points="244.629,-29.1366 255.129,-32.2964 249.586,-28.4856 254.544,-27.8347 254.544,-27.8347 254.544,-27.8347 249.586,-28.4856 253.958,-23.373 244.629,-29.1366 244.629,-29.1366"/>
<text text-anchor="middle" x="115.431" y="-146.3" font-family="Times,serif" font-size="14.00">taggings</text>
</g>
<!-- Image&#45;&gt;ActsAsTaggableOn::Tagging -->
<g id="edge3" class="edge"><title>Image&#45;&gt;ActsAsTaggableOn::Tagging</title>
<path fill="none" stroke="#20ade7" d="M493.05,-281.181C442.172,-280.077 354.018,-273.799 284.431,-246 222.01,-221.064 192.165,-217.779 161.431,-158 130.766,-98.3566 217.731,-57.9349 283.698,-36.6819"/>
<ellipse fill="none" stroke="#20ade7" cx="497.192" cy="-281.252" rx="4" ry="4"/>
<polygon fill="#20ade7" stroke="#20ade7" points="283.719,-36.6753 294.607,-37.9795 288.49,-35.1803 293.262,-33.6853 293.262,-33.6853 293.262,-33.6853 288.49,-35.1803 291.916,-29.3912 283.719,-36.6753 283.719,-36.6753"/>
<text text-anchor="middle" x="218.931" y="-146.3" font-family="Times,serif" font-size="14.00">experiment_taggings</text>
</g>
<!-- Image&#45;&gt;ActsAsTaggableOn::Tagging -->
<g id="edge5" class="edge"><title>Image&#45;&gt;ActsAsTaggableOn::Tagging</title>
<path fill="none" stroke="#b8280a" d="M493.086,-280.468C402.315,-278.822 188.359,-272.198 121.431,-246 62.1549,-222.798 36.3799,-215.191 8.43054,-158 -37.4735,-64.07 113.978,-33.4069 229.916,-23.5214"/>
<ellipse fill="none" stroke="#b8280a" cx="497.22" cy="-280.539" rx="4" ry="4"/>
<polygon fill="#b8280a" stroke="#b8280a" points="229.99,-23.5155 240.32,-27.1942 234.973,-23.1122 239.957,-22.7089 239.957,-22.7089 239.957,-22.7089 234.973,-23.1122 239.594,-18.2236 229.99,-23.5155 229.99,-23.5155"/>
<text text-anchor="middle" x="47.9305" y="-146.3" font-family="Times,serif" font-size="14.00">code_taggings</text>
</g>
<!-- ActsAsTaggableOn::Tag -->
<g id="node25" class="node"><title>ActsAsTaggableOn::Tag</title>
<ellipse fill="none" stroke="black" cx="1497.43" cy="-18" rx="98.1881" ry="18"/>
<text text-anchor="middle" x="1497.43" y="-14.3" font-family="Times,serif" font-size="14.00">ActsAsTaggableOn::Tag</text>
</g>
<!-- Image&#45;&gt;ActsAsTaggableOn::Tag -->
<g id="edge2" class="edge"><title>Image&#45;&gt;ActsAsTaggableOn::Tag</title>
<path fill="none" stroke="#ac7b70" d="M526.836,-254.124C519.908,-223.322 514.295,-173.097 540.431,-142 564.437,-113.436 590.096,-142.619 622.431,-124 660.018,-102.356 650.487,-70.9045 690.431,-54 752.262,-27.8325 1227.4,-39.8029 1294.43,-36 1329.63,-34.0031 1368.2,-30.9836 1402.17,-28.0407"/>
<polygon fill="#ac7b70" stroke="#ac7b70" points="526.912,-254.434 524.921,-265.217 528.102,-259.29 529.291,-264.146 529.291,-264.146 529.291,-264.146 528.102,-259.29 533.662,-263.076 526.912,-254.434 526.912,-254.434"/>
<polygon fill="#ac7b70" stroke="#ac7b70" points="1402.6,-28.0035 1412.95,-31.6139 1407.58,-27.5673 1412.56,-27.1311 1412.56,-27.1311 1412.56,-27.1311 1407.58,-27.5673 1412.17,-22.6482 1402.6,-28.0035 1402.6,-28.0035"/>
<text text-anchor="middle" x="566.931" y="-146.3" font-family="Times,serif" font-size="14.00">base_tags</text>
</g>
<!-- Image&#45;&gt;ActsAsTaggableOn::Tag -->
<g id="edge4" class="edge"><title>Image&#45;&gt;ActsAsTaggableOn::Tag</title>
<path fill="none" stroke="#0318bf" d="M576.684,-276.078C666.343,-265.501 882.196,-239.341 1062.43,-212 1243.03,-184.604 1287.38,-172.846 1467.43,-142 1490.98,-137.965 1558.01,-142.254 1573.43,-124 1596.46,-96.7342 1561.79,-62.9544 1532.07,-41.1952"/>
<polygon fill="#0318bf" stroke="#0318bf" points="576.569,-276.091 566.112,-272.791 571.604,-276.676 566.638,-277.26 566.638,-277.26 566.638,-277.26 571.604,-276.676 567.164,-281.729 576.569,-276.091 576.569,-276.091"/>
<polygon fill="#0318bf" stroke="#0318bf" points="1532.03,-41.1695 1526.47,-31.7191 1527.95,-38.2808 1523.87,-35.3921 1523.87,-35.3921 1523.87,-35.3921 1527.95,-38.2808 1521.27,-39.0652 1532.03,-41.1695 1532.03,-41.1695"/>
<text text-anchor="middle" x="1500.93" y="-146.3" font-family="Times,serif" font-size="14.00">experiments</text>
</g>
<!-- Image&#45;&gt;ActsAsTaggableOn::Tag -->
<g id="edge6" class="edge"><title>Image&#45;&gt;ActsAsTaggableOn::Tag</title>
<path fill="none" stroke="#75bd98" d="M577.382,-278.255C744.81,-267.165 1353.35,-223.126 1534.43,-158 1562.19,-148.017 1576.86,-149.65 1591.43,-124 1599.33,-110.087 1595.8,-103.392 1591.43,-88 1586.58,-70.9142 1583.64,-65.8746 1570.43,-54 1564.05,-48.2591 1556.55,-43.265 1548.84,-38.9882"/>
<polygon fill="#75bd98" stroke="#75bd98" points="577.206,-278.266 566.932,-274.432 572.217,-278.595 567.227,-278.923 567.227,-278.923 567.227,-278.923 572.217,-278.595 567.523,-283.413 577.206,-278.266 577.206,-278.266"/>
<polygon fill="#75bd98" stroke="#75bd98" points="1548.63,-38.8793 1541.8,-30.2959 1544.18,-36.5873 1539.74,-34.2953 1539.74,-34.2953 1539.74,-34.2953 1544.18,-36.5873 1537.68,-38.2947 1548.63,-38.8793 1548.63,-38.8793"/>
<text text-anchor="middle" x="1591.93" y="-146.3" font-family="Times,serif" font-size="14.00">codes</text>
</g>
<!-- SocialMediaProfile -->
<g id="node3" class="node"><title>SocialMediaProfile</title>
<ellipse fill="none" stroke="black" cx="1833.43" cy="-391" rx="78.9404" ry="18"/>
<text text-anchor="middle" x="1833.43" y="-387.3" font-family="Times,serif" font-size="14.00">SocialMediaProfile</text>
</g>
<!-- AnalyticsFile -->
<g id="node13" class="node"><title>AnalyticsFile</title>
<ellipse fill="none" stroke="black" cx="1868.43" cy="-194" rx="57.2688" ry="18"/>
<text text-anchor="middle" x="1868.43" y="-190.3" font-family="Times,serif" font-size="14.00">AnalyticsFile</text>
</g>
<!-- SocialMediaProfile&#45;&gt;AnalyticsFile -->
<g id="edge10" class="edge"><title>SocialMediaProfile&#45;&gt;AnalyticsFile</title>
<path fill="none" stroke="#77bbb3" d="M1836.65,-364.763C1840.03,-339.254 1845.79,-298.75 1852.43,-264 1855.08,-250.129 1858.57,-234.817 1861.62,-222.148"/>
<ellipse fill="none" stroke="#77bbb3" cx="1836.11" cy="-368.843" rx="4.00001" ry="4.00001"/>
<polygon fill="#77bbb3" stroke="#77bbb3" points="1861.67,-221.933 1868.42,-213.286 1862.86,-217.075 1864.04,-212.218 1864.04,-212.218 1864.04,-212.218 1862.86,-217.075 1859.67,-211.151 1861.67,-221.933 1861.67,-221.933"/>
</g>
<!-- SocialMediaProfile&#45;&gt;Message -->
<g id="edge11" class="edge"><title>SocialMediaProfile&#45;&gt;Message</title>
<path fill="none" stroke="#001ac6" d="M1793.79,-370.987C1778.61,-364.264 1760.97,-357.111 1744.43,-352 1631.01,-316.948 1598.65,-324.234 1482.43,-300 1372.43,-277.061 1345.1,-270.473 1235.43,-246 1173.73,-232.231 1102.56,-215.96 1057.3,-205.565"/>
<ellipse fill="none" stroke="#001ac6" cx="1797.84" cy="-372.809" rx="4.00002" ry="4.00002"/>
<polygon fill="#001ac6" stroke="#001ac6" points="1057.24,-205.55 1048.5,-198.925 1052.36,-204.43 1047.49,-203.31 1047.49,-203.31 1047.49,-203.31 1052.36,-204.43 1046.48,-207.696 1057.24,-205.55 1057.24,-205.55"/>
</g>
<!-- Experiment -->
<g id="node18" class="node"><title>Experiment</title>
<ellipse fill="none" stroke="black" cx="2075.43" cy="-282" rx="51.4931" ry="18"/>
<text text-anchor="middle" x="2075.43" y="-278.3" font-family="Times,serif" font-size="14.00">Experiment</text>
</g>
<!-- SocialMediaProfile&#45;&gt;Experiment -->
<g id="edge9" class="edge"><title>SocialMediaProfile&#45;&gt;Experiment</title>
<path fill="none" stroke="#0ebab8" d="M1877.12,-370.684C1922.15,-350.771 1991.78,-319.988 2035.42,-300.692"/>
<polygon fill="#0ebab8" stroke="#0ebab8" points="1876.99,-370.739 1866.03,-370.667 1872.42,-372.761 1867.85,-374.783 1867.85,-374.783 1867.85,-374.783 1872.42,-372.761 1869.67,-378.899 1876.99,-370.739 1876.99,-370.739"/>
<polygon fill="#0ebab8" stroke="#0ebab8" points="2035.44,-300.683 2046.4,-300.755 2040.01,-298.661 2044.58,-296.639 2044.58,-296.639 2044.58,-296.639 2040.01,-298.661 2042.76,-292.524 2035.44,-300.683 2035.44,-300.683"/>
</g>
<!-- Ahoy::Event -->
<g id="node4" class="node"><title>Ahoy::Event</title>
<ellipse fill="none" stroke="black" cx="2201.43" cy="-282" rx="55.3436" ry="18"/>
<text text-anchor="middle" x="2201.43" y="-278.3" font-family="Times,serif" font-size="14.00">Ahoy::Event</text>
</g>
<!-- Visit -->
<g id="node5" class="node"><title>Visit</title>
<ellipse fill="none" stroke="black" cx="2201.43" cy="-391" rx="27.4223" ry="18"/>
<text text-anchor="middle" x="2201.43" y="-387.3" font-family="Times,serif" font-size="14.00">Visit</text>
</g>
<!-- Visit&#45;&gt;Ahoy::Event -->
<g id="edge12" class="edge"><title>Visit&#45;&gt;Ahoy::Event</title>
<path fill="none" stroke="#c50849" d="M2201.43,-364.772C2201.43,-348.434 2201.43,-327.161 2201.43,-310.408"/>
<ellipse fill="none" stroke="#c50849" cx="2201.43" cy="-368.809" rx="4" ry="4"/>
<polygon fill="#c50849" stroke="#c50849" points="2201.43,-310.149 2205.93,-300.149 2201.43,-305.149 2201.43,-300.149 2201.43,-300.149 2201.43,-300.149 2201.43,-305.149 2196.93,-300.149 2201.43,-310.149 2201.43,-310.149"/>
<text text-anchor="middle" x="2235.43" y="-322.3" font-family="Times,serif" font-size="14.00">ahoy_events</text>
</g>
<!-- Hashtag -->
<g id="node6" class="node"><title>Hashtag</title>
<ellipse fill="none" stroke="black" cx="2287.43" cy="-391" rx="39.4691" ry="18"/>
<text text-anchor="middle" x="2287.43" y="-387.3" font-family="Times,serif" font-size="14.00">Hashtag</text>
</g>
<!-- DataDictionary -->
<g id="node7" class="node"><title>DataDictionary</title>
<ellipse fill="none" stroke="black" cx="2247.43" cy="-194" rx="64.4914" ry="18"/>
<text text-anchor="middle" x="2247.43" y="-190.3" font-family="Times,serif" font-size="14.00">DataDictionary</text>
</g>
<!-- DataDictionaryEntry -->
<g id="node23" class="node"><title>DataDictionaryEntry</title>
<ellipse fill="none" stroke="black" cx="2247.43" cy="-106" rx="84.2388" ry="18"/>
<text text-anchor="middle" x="2247.43" y="-102.3" font-family="Times,serif" font-size="14.00">DataDictionaryEntry</text>
</g>
<!-- DataDictionary&#45;&gt;DataDictionaryEntry -->
<g id="edge13" class="edge"><title>DataDictionary&#45;&gt;DataDictionaryEntry</title>
<path fill="none" stroke="#20b7bc" d="M2247.43,-167.339C2247.43,-156.855 2247.43,-144.718 2247.43,-134.091"/>
<ellipse fill="none" stroke="#20b7bc" cx="2247.43" cy="-171.597" rx="4" ry="4"/>
<polygon fill="#20b7bc" stroke="#20b7bc" points="2247.43,-134.084 2251.93,-124.084 2247.43,-129.084 2247.43,-124.084 2247.43,-124.084 2247.43,-124.084 2247.43,-129.084 2242.93,-124.084 2247.43,-134.084 2247.43,-134.084"/>
</g>
<!-- Comment -->
<g id="node8" class="node"><title>Comment</title>
<ellipse fill="none" stroke="black" cx="1110.43" cy="-106" rx="46.2191" ry="18"/>
<text text-anchor="middle" x="1110.43" y="-102.3" font-family="Times,serif" font-size="14.00">Comment</text>
</g>
<!-- Comment&#45;&gt;ActsAsTaggableOn::Tagging -->
<g id="edge14" class="edge"><title>Comment&#45;&gt;ActsAsTaggableOn::Tagging</title>
<path fill="none" stroke="#b170fa" d="M1068.9,-91.344C1064.06,-90.0647 1059.16,-88.9093 1054.43,-88 962.004,-70.2327 937.133,-78.8427 843.431,-70 707.809,-57.2014 551.389,-40.7284 451.76,-30.0201"/>
<ellipse fill="none" stroke="#b170fa" cx="1073.11" cy="-92.5172" rx="4.00001" ry="4.00001"/>
<polygon fill="#b170fa" stroke="#b170fa" points="451.641,-30.0075 442.18,-24.4634 446.67,-29.4726 441.699,-28.9376 441.699,-28.9376 441.699,-28.9376 446.67,-29.4726 441.217,-33.4118 451.641,-30.0075 451.641,-30.0075"/>
<text text-anchor="middle" x="866.431" y="-58.3" font-family="Times,serif" font-size="14.00">taggings</text>
</g>
<!-- Comment&#45;&gt;ActsAsTaggableOn::Tagging -->
<g id="edge16" class="edge"><title>Comment&#45;&gt;ActsAsTaggableOn::Tagging</title>
<path fill="none" stroke="#4ab300" d="M1068.19,-91.7294C1063.56,-90.4095 1058.91,-89.1387 1054.43,-88 981.865,-69.5504 963.633,-64.0054 889.431,-54 747.042,-34.8006 582.021,-26.0458 472.462,-22.1107"/>
<ellipse fill="none" stroke="#4ab300" cx="1072.08" cy="-92.8625" rx="4.00001" ry="4.00001"/>
<polygon fill="#4ab300" stroke="#4ab300" points="472.36,-22.1072 462.524,-17.2588 467.363,-21.9316 462.366,-21.756 462.366,-21.756 462.366,-21.756 467.363,-21.9316 462.208,-26.2533 472.36,-22.1072 472.36,-22.1072"/>
<text text-anchor="middle" x="1020.93" y="-58.3" font-family="Times,serif" font-size="14.00">code_taggings</text>
</g>
<!-- Comment&#45;&gt;ActsAsTaggableOn::Tag -->
<g id="edge15" class="edge"><title>Comment&#45;&gt;ActsAsTaggableOn::Tag</title>
<path fill="none" stroke="#a01e92" d="M1079.65,-83.8192C1069.54,-74.3692 1062.86,-63.2954 1071.43,-54 1088.29,-35.7291 1269.66,-38.0372 1294.43,-36 1328.85,-33.1697 1366.55,-30.0252 1400.01,-27.2179"/>
<polygon fill="#a01e92" stroke="#a01e92" points="1079.78,-83.9329 1084.55,-93.8104 1083.61,-87.1488 1087.44,-90.3646 1087.44,-90.3646 1087.44,-90.3646 1083.61,-87.1488 1090.33,-86.9188 1079.78,-83.9329 1079.78,-83.9329"/>
<polygon fill="#a01e92" stroke="#a01e92" points="1400.29,-27.1947 1410.63,-30.8425 1405.27,-26.7765 1410.25,-26.3582 1410.25,-26.3582 1410.25,-26.3582 1405.27,-26.7765 1409.88,-21.874 1400.29,-27.1947 1400.29,-27.1947"/>
<text text-anchor="middle" x="1097.93" y="-58.3" font-family="Times,serif" font-size="14.00">base_tags</text>
</g>
<!-- Comment&#45;&gt;ActsAsTaggableOn::Tag -->
<g id="edge17" class="edge"><title>Comment&#45;&gt;ActsAsTaggableOn::Tag</title>
<path fill="none" stroke="#938a46" d="M1123.28,-78.9643C1129.29,-69.5294 1137.37,-59.7808 1147.43,-54 1152.95,-50.8308 1299.69,-36.9483 1401.39,-27.6486"/>
<polygon fill="#938a46" stroke="#938a46" points="1123.19,-79.1302 1114.27,-85.5116 1120.67,-83.4522 1118.16,-87.7742 1118.16,-87.7742 1118.16,-87.7742 1120.67,-83.4522 1122.05,-90.0368 1123.19,-79.1302 1123.19,-79.1302"/>
<polygon fill="#938a46" stroke="#938a46" points="1401.43,-27.6446 1411.8,-31.2167 1406.41,-27.19 1411.39,-26.7354 1411.39,-26.7354 1411.39,-26.7354 1406.41,-27.19 1410.98,-22.254 1401.43,-27.6446 1401.43,-27.6446"/>
<text text-anchor="middle" x="1162.93" y="-58.3" font-family="Times,serif" font-size="14.00">codes</text>
</g>
<!-- DailyMetricParserResult -->
<g id="node9" class="node"><title>DailyMetricParserResult</title>
<ellipse fill="none" stroke="black" cx="2443.43" cy="-391" rx="98.1881" ry="18"/>
<text text-anchor="middle" x="2443.43" y="-387.3" font-family="Times,serif" font-size="14.00">DailyMetricParserResult</text>
</g>
<!-- MessageTemplate -->
<g id="node10" class="node"><title>MessageTemplate</title>
<ellipse fill="none" stroke="black" cx="1566.43" cy="-282" rx="75.0904" ry="18"/>
<text text-anchor="middle" x="1566.43" y="-278.3" font-family="Times,serif" font-size="14.00">MessageTemplate</text>
</g>
<!-- MessageTemplate&#45;&gt;Message -->
<g id="edge24" class="edge"><title>MessageTemplate&#45;&gt;Message</title>
<path fill="none" stroke="#6dddf3" d="M1497.25,-270.28C1383.41,-252.64 1159.38,-217.925 1060.41,-202.59"/>
<ellipse fill="none" stroke="#6dddf3" cx="1501.23" cy="-270.897" rx="4.00001" ry="4.00001"/>
<polygon fill="#6dddf3" stroke="#6dddf3" points="1060.27,-202.567 1051.07,-196.589 1055.32,-201.802 1050.38,-201.036 1050.38,-201.036 1050.38,-201.036 1055.32,-201.802 1049.69,-205.483 1060.27,-202.567 1060.27,-202.567"/>
</g>
<!-- MessageTemplate&#45;&gt;ActsAsTaggableOn::Tagging -->
<g id="edge18" class="edge"><title>MessageTemplate&#45;&gt;ActsAsTaggableOn::Tagging</title>
<path fill="none" stroke="#56817c" d="M1483.26,-280.96C1293.2,-280.344 831.715,-275.728 679.431,-246 566.285,-223.913 529.656,-224.419 435.431,-158 396.001,-130.207 371.383,-77.7559 359.341,-45.8353"/>
<ellipse fill="none" stroke="#56817c" cx="1487.28" cy="-280.972" rx="4" ry="4"/>
<polygon fill="#56817c" stroke="#56817c" points="359.275,-45.6527 360.102,-34.718 357.573,-40.9514 355.87,-36.2501 355.87,-36.2501 355.87,-36.2501 357.573,-40.9514 351.639,-37.7822 359.275,-45.6527 359.275,-45.6527"/>
<text text-anchor="middle" x="458.431" y="-146.3" font-family="Times,serif" font-size="14.00">taggings</text>
</g>
<!-- MessageTemplate&#45;&gt;ActsAsTaggableOn::Tagging -->
<g id="edge20" class="edge"><title>MessageTemplate&#45;&gt;ActsAsTaggableOn::Tagging</title>
<path fill="none" stroke="#490c6c" d="M1482.97,-281.314C1315.66,-279.536 929.341,-263.242 626.431,-158 597.112,-147.814 592.461,-139.255 565.431,-124 537.346,-108.149 531.144,-102.681 502.431,-88 467.971,-70.3811 428.099,-52.3672 397.84,-39.1651"/>
<ellipse fill="none" stroke="#490c6c" cx="1487.25" cy="-281.354" rx="4" ry="4"/>
<polygon fill="#490c6c" stroke="#490c6c" points="397.545,-39.0371 390.165,-30.9267 392.959,-37.0458 388.372,-35.0544 388.372,-35.0544 388.372,-35.0544 392.959,-37.0458 386.58,-39.1821 397.545,-39.0371 397.545,-39.0371"/>
<text text-anchor="middle" x="661.431" y="-146.3" font-family="Times,serif" font-size="14.00">tag_taggings</text>
</g>
<!-- MessageTemplate&#45;&gt;ActsAsTaggableOn::Tagging -->
<g id="edge22" class="edge"><title>MessageTemplate&#45;&gt;ActsAsTaggableOn::Tagging</title>
<path fill="none" stroke="#cc618a" d="M1483.2,-280.258C1280.25,-278.086 764.061,-270.278 593.431,-246 458.396,-226.786 378.869,-268.874 299.431,-158 274.114,-122.666 304.496,-73.3618 328.04,-43.9611"/>
<ellipse fill="none" stroke="#cc618a" cx="1487.46" cy="-280.303" rx="4" ry="4"/>
<polygon fill="#cc618a" stroke="#cc618a" points="328.068,-43.9264 337.912,-39.0948 331.258,-40.0754 334.447,-36.2245 334.447,-36.2245 334.447,-36.2245 331.258,-40.0754 330.981,-33.3543 328.068,-43.9264 328.068,-43.9264"/>
<text text-anchor="middle" x="356.931" y="-146.3" font-family="Times,serif" font-size="14.00">experiment_taggings</text>
</g>
<!-- MessageTemplate&#45;&gt;ActsAsTaggableOn::Tag -->
<g id="edge19" class="edge"><title>MessageTemplate&#45;&gt;ActsAsTaggableOn::Tag</title>
<path fill="none" stroke="#6613c8" d="M1610.53,-260.892C1617.63,-256.564 1624.56,-251.585 1630.43,-246 1694.49,-185.067 1739.61,-121.431 1682.43,-54 1670.74,-40.2107 1634.61,-31.8033 1597.35,-26.7013"/>
<polygon fill="#6613c8" stroke="#6613c8" points="1610.2,-261.076 1599.29,-262.112 1605.86,-263.549 1601.51,-266.022 1601.51,-266.022 1601.51,-266.022 1605.86,-263.549 1603.74,-269.933 1610.2,-261.076 1610.2,-261.076"/>
<polygon fill="#6613c8" stroke="#6613c8" points="1597.26,-26.6907 1587.92,-20.9482 1592.31,-26.051 1587.35,-25.4112 1587.35,-25.4112 1587.35,-25.4112 1592.31,-26.051 1586.77,-29.8743 1597.26,-26.6907 1597.26,-26.6907"/>
<text text-anchor="middle" x="1731.93" y="-146.3" font-family="Times,serif" font-size="14.00">base_tags</text>
</g>
<!-- MessageTemplate&#45;&gt;ActsAsTaggableOn::Tag -->
<g id="edge21" class="edge"><title>MessageTemplate&#45;&gt;ActsAsTaggableOn::Tag</title>
<path fill="none" stroke="#516783" d="M1628.31,-266.125C1692.27,-246.981 1780.24,-208.061 1760.43,-142 1746.97,-97.1323 1741.65,-79.6148 1702.43,-54 1684.2,-42.0919 1637.63,-33.635 1593.48,-28.0208"/>
<polygon fill="#516783" stroke="#516783" points="1628.27,-266.136 1617.41,-264.596 1623.46,-267.527 1618.66,-268.918 1618.66,-268.918 1618.66,-268.918 1623.46,-267.527 1619.91,-273.241 1628.27,-266.136 1628.27,-266.136"/>
<polygon fill="#516783" stroke="#516783" points="1593.45,-28.0163 1584.07,-22.3292 1588.48,-27.4059 1583.52,-26.7955 1583.52,-26.7955 1583.52,-26.7955 1588.48,-27.4059 1582.97,-31.2619 1593.45,-28.0163 1593.45,-28.0163"/>
<text text-anchor="middle" x="1774.43" y="-146.3" font-family="Times,serif" font-size="14.00">tags</text>
</g>
<!-- MessageTemplate&#45;&gt;ActsAsTaggableOn::Tag -->
<g id="edge23" class="edge"><title>MessageTemplate&#45;&gt;ActsAsTaggableOn::Tag</title>
<path fill="none" stroke="#635edd" d="M1575.93,-254.622C1586.84,-225.842 1606.26,-178.945 1629.43,-142 1634.96,-133.178 1640.89,-133.792 1644.43,-124 1655.02,-94.7471 1663.71,-78.414 1644.43,-54 1636.39,-43.8229 1612.64,-36.2863 1586.5,-30.8686"/>
<polygon fill="#635edd" stroke="#635edd" points="1575.93,-254.631 1568.21,-262.428 1574.18,-259.315 1572.43,-264 1572.43,-264 1572.43,-264 1574.18,-259.315 1576.65,-265.573 1575.93,-254.631 1575.93,-254.631"/>
<polygon fill="#635edd" stroke="#635edd" points="1586.21,-30.812 1577.26,-24.4783 1581.31,-29.8534 1576.4,-28.8949 1576.4,-28.8949 1576.4,-28.8949 1581.31,-29.8534 1575.54,-33.3114 1586.21,-30.812 1586.21,-30.812"/>
<text text-anchor="middle" x="1662.93" y="-146.3" font-family="Times,serif" font-size="14.00">experiments</text>
</g>
<!-- Click -->
<g id="node11" class="node"><title>Click</title>
<ellipse fill="none" stroke="black" cx="1256.43" cy="-18" rx="29.3479" ry="18"/>
<text text-anchor="middle" x="1256.43" y="-14.3" font-family="Times,serif" font-size="14.00">Click</text>
</g>
<!-- AnalyticsFileSet -->
<g id="node12" class="node"><title>AnalyticsFileSet</title>
<ellipse fill="none" stroke="black" cx="1931.43" cy="-282" rx="69.3156" ry="18"/>
<text text-anchor="middle" x="1931.43" y="-278.3" font-family="Times,serif" font-size="14.00">AnalyticsFileSet</text>
</g>
<!-- AnalyticsFileSet&#45;&gt;AnalyticsFile -->
<g id="edge25" class="edge"><title>AnalyticsFileSet&#45;&gt;AnalyticsFile</title>
<path fill="none" stroke="#7416ae" d="M1914.02,-257.235C1905.49,-245.586 1895.22,-231.564 1886.58,-219.781"/>
<ellipse fill="none" stroke="#7416ae" cx="1916.62" cy="-260.782" rx="4.00002" ry="4.00002"/>
<polygon fill="#7416ae" stroke="#7416ae" points="1886.55,-219.73 1884.27,-209.004 1883.59,-215.696 1880.64,-211.663 1880.64,-211.663 1880.64,-211.663 1883.59,-215.696 1877.01,-214.322 1886.55,-219.73 1886.55,-219.73"/>
</g>
<!-- Metric -->
<g id="node14" class="node"><title>Metric</title>
<ellipse fill="none" stroke="black" cx="1011.43" cy="-106" rx="34.1708" ry="18"/>
<text text-anchor="middle" x="1011.43" y="-102.3" font-family="Times,serif" font-size="14.00">Metric</text>
</g>
<!-- Message&#45;&gt;Comment -->
<g id="edge33" class="edge"><title>Message&#45;&gt;Comment</title>
<path fill="none" stroke="#c26473" d="M1035.29,-172.277C1050.19,-159.329 1069.38,-142.658 1084.64,-129.405"/>
<ellipse fill="none" stroke="#c26473" cx="1032.15" cy="-175.002" rx="4.00002" ry="4.00002"/>
<polygon fill="#c26473" stroke="#c26473" points="1084.67,-129.382 1095.17,-126.221 1088.44,-126.103 1092.21,-122.824 1092.21,-122.824 1092.21,-122.824 1088.44,-126.103 1089.26,-119.427 1084.67,-129.382 1084.67,-129.382"/>
</g>
<!-- Message&#45;&gt;Metric -->
<g id="edge34" class="edge"><title>Message&#45;&gt;Metric</title>
<path fill="none" stroke="#d95155" d="M1011.43,-167.339C1011.43,-156.855 1011.43,-144.718 1011.43,-134.091"/>
<ellipse fill="none" stroke="#d95155" cx="1011.43" cy="-171.597" rx="4" ry="4"/>
<polygon fill="#d95155" stroke="#d95155" points="1011.43,-134.084 1015.93,-124.084 1011.43,-129.084 1011.43,-124.084 1011.43,-124.084 1011.43,-124.084 1011.43,-129.084 1006.93,-124.084 1011.43,-134.084 1011.43,-134.084"/>
</g>
<!-- ClickMeterTrackingLink -->
<g id="node19" class="node"><title>ClickMeterTrackingLink</title>
<ellipse fill="none" stroke="black" cx="1465.43" cy="-106" rx="99.1619" ry="18"/>
<text text-anchor="middle" x="1465.43" y="-102.3" font-family="Times,serif" font-size="14.00">ClickMeterTrackingLink</text>
</g>
<!-- Message&#45;&gt;ClickMeterTrackingLink -->
<g id="edge31" class="edge"><title>Message&#45;&gt;ClickMeterTrackingLink</title>
<path fill="none" stroke="#9b4d48" d="M1060.82,-189.457C1117.81,-184.784 1214.11,-175.082 1295.43,-158 1335.91,-149.497 1380.68,-135.889 1414.11,-124.867"/>
<ellipse fill="none" stroke="#9b4d48" cx="1056.69" cy="-189.79" rx="4" ry="4"/>
<ellipse fill="#9b4d48" stroke="#9b4d48" cx="1418.13" cy="-123.531" rx="4.00001" ry="4.00001"/>
</g>
<!-- ImageReplacement -->
<g id="node20" class="node"><title>ImageReplacement</title>
<ellipse fill="none" stroke="black" cx="743.431" cy="-106" rx="78.9404" ry="18"/>
<text text-anchor="middle" x="743.431" y="-102.3" font-family="Times,serif" font-size="14.00">ImageReplacement</text>
</g>
<!-- Message&#45;&gt;ImageReplacement -->
<g id="edge32" class="edge"><title>Message&#45;&gt;ImageReplacement</title>
<path fill="none" stroke="#4b1718" d="M971.213,-180.094C924.815,-165.206 848.333,-140.663 796.942,-124.172"/>
<ellipse fill="none" stroke="#4b1718" cx="975.028" cy="-181.318" rx="4.00001" ry="4.00001"/>
<polygon fill="#4b1718" stroke="#4b1718" points="796.855,-124.144 788.709,-116.804 792.095,-122.616 787.334,-121.088 787.334,-121.088 787.334,-121.088 792.095,-122.616 785.959,-125.373 796.855,-124.144 796.855,-124.144"/>
</g>
<!-- BufferUpdate -->
<g id="node22" class="node"><title>BufferUpdate</title>
<ellipse fill="none" stroke="black" cx="899.431" cy="-106" rx="59.2173" ry="18"/>
<text text-anchor="middle" x="899.431" y="-102.3" font-family="Times,serif" font-size="14.00">BufferUpdate</text>
</g>
<!-- Message&#45;&gt;BufferUpdate -->
<g id="edge30" class="edge"><title>Message&#45;&gt;BufferUpdate</title>
<path fill="none" stroke="#73b065" d="M985.491,-173.082C967.98,-159.636 944.894,-141.91 927.042,-128.202"/>
<ellipse fill="none" stroke="#73b065" cx="988.749" cy="-175.584" rx="4.00002" ry="4.00002"/>
<ellipse fill="#73b065" stroke="#73b065" cx="923.407" cy="-125.411" rx="4.00002" ry="4.00002"/>
</g>
<!-- Message&#45;&gt;ActsAsTaggableOn::Tagging -->
<g id="edge26" class="edge"><title>Message&#45;&gt;ActsAsTaggableOn::Tagging</title>
<path fill="none" stroke="#dfd234" d="M964.554,-185.659C861.967,-169.497 625.397,-131.664 609.431,-124 567.139,-103.7 572.496,-74.7657 530.431,-54 507.498,-42.679 481.232,-35.0166 455.983,-29.8315"/>
<ellipse fill="none" stroke="#dfd234" cx="968.635" cy="-186.301" rx="4.00001" ry="4.00001"/>
<polygon fill="#dfd234" stroke="#dfd234" points="455.81,-29.7979 446.849,-23.477 450.901,-28.8463 445.993,-27.8948 445.993,-27.8948 445.993,-27.8948 450.901,-28.8463 445.136,-32.3125 455.81,-29.7979 455.81,-29.7979"/>
<text text-anchor="middle" x="632.431" y="-102.3" font-family="Times,serif" font-size="14.00">taggings</text>
</g>
<!-- Message&#45;&gt;ActsAsTaggableOn::Tagging -->
<g id="edge28" class="edge"><title>Message&#45;&gt;ActsAsTaggableOn::Tagging</title>
<path fill="none" stroke="#7d2d04" d="M961.232,-191.966C852.813,-189.322 599.903,-180.84 517.431,-158 513.408,-156.886 453.779,-126.492 450.431,-124 418.953,-100.578 388.737,-66.756 369.915,-43.8789"/>
<ellipse fill="none" stroke="#7d2d04" cx="965.407" cy="-192.065" rx="4" ry="4"/>
<polygon fill="#7d2d04" stroke="#7d2d04" points="369.812,-43.7528 367.01,-33.1511 366.663,-39.869 363.514,-35.9853 363.514,-35.9853 363.514,-35.9853 366.663,-39.869 360.019,-38.8194 369.812,-43.7528 369.812,-43.7528"/>
<text text-anchor="middle" x="507.931" y="-102.3" font-family="Times,serif" font-size="14.00">experiment_taggings</text>
</g>
<!-- Message&#45;&gt;ActsAsTaggableOn::Tag -->
<g id="edge27" class="edge"><title>Message&#45;&gt;ActsAsTaggableOn::Tag</title>
<path fill="none" stroke="#18352f" d="M1052.72,-178.395C1084.75,-166.163 1129.57,-147.028 1165.43,-124 1185.83,-110.896 1186.62,-101.982 1206.43,-88 1231.79,-70.1045 1238.06,-64.0504 1267.43,-54 1308.74,-39.8635 1356.16,-31.425 1397.18,-26.393"/>
<polygon fill="#18352f" stroke="#18352f" points="1052.58,-178.448 1041.63,-177.753 1047.9,-180.207 1043.22,-181.966 1043.22,-181.966 1043.22,-181.966 1047.9,-180.207 1044.8,-186.178 1052.58,-178.448 1052.58,-178.448"/>
<polygon fill="#18352f" stroke="#18352f" points="1397.26,-26.3841 1407.71,-29.6857 1402.22,-25.8003 1407.19,-25.2164 1407.19,-25.2164 1407.19,-25.2164 1402.22,-25.8003 1406.66,-20.7472 1397.26,-26.3841 1397.26,-26.3841"/>
<text text-anchor="middle" x="1232.93" y="-102.3" font-family="Times,serif" font-size="14.00">base_tags</text>
</g>
<!-- Message&#45;&gt;ActsAsTaggableOn::Tag -->
<g id="edge29" class="edge"><title>Message&#45;&gt;ActsAsTaggableOn::Tag</title>
<path fill="none" stroke="#4d13d3" d="M1062.28,-187.643C1115.04,-180.166 1198.24,-162.847 1259.43,-124 1277.26,-112.684 1272.9,-99.7617 1290.43,-88 1329.89,-61.5295 1380.39,-44.433 1421.62,-33.8797"/>
<polygon fill="#4d13d3" stroke="#4d13d3" points="1062.06,-187.673 1051.55,-184.551 1057.1,-188.342 1052.15,-189.011 1052.15,-189.011 1052.15,-189.011 1057.1,-188.342 1052.75,-193.471 1062.06,-187.673 1062.06,-187.673"/>
<polygon fill="#4d13d3" stroke="#4d13d3" points="1421.65,-33.8741 1432.43,-35.8338 1426.5,-32.6701 1431.35,-31.4662 1431.35,-31.4662 1431.35,-31.4662 1426.5,-32.6701 1430.27,-27.0986 1421.65,-33.8741 1421.65,-33.8741"/>
<text text-anchor="middle" x="1323.93" y="-102.3" font-family="Times,serif" font-size="14.00">experiments</text>
</g>
<!-- Modification -->
<g id="node16" class="node"><title>Modification</title>
<ellipse fill="none" stroke="black" cx="2387.43" cy="-194" rx="57.2927" ry="18"/>
<text text-anchor="middle" x="2387.43" y="-190.3" font-family="Times,serif" font-size="14.00">Modification</text>
</g>
<!-- MessageGenerationParameterSet -->
<g id="node17" class="node"><title>MessageGenerationParameterSet</title>
<ellipse fill="none" stroke="black" cx="2590.43" cy="-194" rx="128.058" ry="18"/>
<text text-anchor="middle" x="2590.43" y="-190.3" font-family="Times,serif" font-size="14.00">MessageGenerationParameterSet</text>
</g>
<!-- Experiment&#45;&gt;DataDictionary -->
<g id="edge36" class="edge"><title>Experiment&#45;&gt;DataDictionary</title>
<path fill="none" stroke="#4530bf" d="M2114.42,-264.196C2126.97,-258.604 2140.87,-252.214 2153.43,-246 2173.38,-236.13 2195.26,-224.321 2212.88,-214.553"/>
<ellipse fill="none" stroke="#4530bf" cx="2110.46" cy="-265.947" rx="4.00002" ry="4.00002"/>
<ellipse fill="#4530bf" stroke="#4530bf" cx="2216.66" cy="-212.448" rx="4.00002" ry="4.00002"/>
</g>
<!-- Experiment&#45;&gt;AnalyticsFile -->
<g id="edge38" class="edge"><title>Experiment&#45;&gt;AnalyticsFile</title>
<path fill="none" stroke="#9dbbb9" d="M2036.04,-264.635C2000.35,-249.805 1947.87,-228.002 1911.17,-212.755"/>
<ellipse fill="none" stroke="#9dbbb9" cx="2039.85" cy="-266.216" rx="4.00002" ry="4.00002"/>
<polygon fill="#9dbbb9" stroke="#9dbbb9" points="1910.96,-212.671 1903.46,-204.679 1906.35,-210.753 1901.73,-208.834 1901.73,-208.834 1901.73,-208.834 1906.35,-210.753 1900,-212.99 1910.96,-212.671 1910.96,-212.671"/>
</g>
<!-- Experiment&#45;&gt;Message -->
<g id="edge37" class="edge"><title>Experiment&#45;&gt;Message</title>
<path fill="none" stroke="#17e995" d="M2028.83,-267.87C2022.36,-266.375 2015.75,-265.024 2009.43,-264 1651.14,-205.973 1212.74,-196.703 1063.8,-195.255"/>
<ellipse fill="none" stroke="#17e995" cx="2033.05" cy="-268.888" rx="4.00001" ry="4.00001"/>
<polygon fill="#17e995" stroke="#17e995" points="1063.58,-195.254 1053.62,-190.664 1058.58,-195.209 1053.58,-195.164 1053.58,-195.164 1053.58,-195.164 1058.58,-195.209 1053.54,-199.664 1063.58,-195.254 1063.58,-195.254"/>
</g>
<!-- Experiment&#45;&gt;Modification -->
<g id="edge39" class="edge"><title>Experiment&#45;&gt;Modification</title>
<path fill="none" stroke="#658186" d="M2122.41,-267.89C2127.15,-266.573 2131.88,-265.259 2136.43,-264 2205.44,-244.899 2285.17,-223.012 2335.92,-209.104"/>
<ellipse fill="none" stroke="#658186" cx="2118.33" cy="-269.025" rx="4.00001" ry="4.00001"/>
<polygon fill="#658186" stroke="#658186" points="2336.03,-209.074 2346.86,-210.771 2340.85,-207.753 2345.67,-206.431 2345.67,-206.431 2345.67,-206.431 2340.85,-207.753 2344.48,-202.091 2336.03,-209.074 2336.03,-209.074"/>
</g>
<!-- Experiment&#45;&gt;MessageGenerationParameterSet -->
<g id="edge35" class="edge"><title>Experiment&#45;&gt;MessageGenerationParameterSet</title>
<path fill="none" stroke="#068720" d="M2121.27,-267.585C2126.36,-266.286 2131.49,-265.059 2136.43,-264 2170.9,-256.606 2374.44,-226.494 2496.99,-208.584"/>
<ellipse fill="none" stroke="#068720" cx="2117.19" cy="-268.657" rx="4.00001" ry="4.00001"/>
<ellipse fill="#068720" stroke="#068720" cx="2500.98" cy="-208" rx="4.00001" ry="4.00001"/>
</g>
<!-- User -->
<g id="node21" class="node"><title>User</title>
<ellipse fill="none" stroke="black" cx="2763.43" cy="-194" rx="26.949" ry="18"/>
<text text-anchor="middle" x="2763.43" y="-190.3" font-family="Times,serif" font-size="14.00">User</text>
</g>
<!-- Experiment&#45;&gt;User -->
<g id="edge40" class="edge"><title>Experiment&#45;&gt;User</title>
<path fill="none" stroke="#54c45f" d="M2122.64,-266.924C2127.28,-265.82 2131.93,-264.818 2136.43,-264 2266.15,-240.426 2600.17,-246.463 2727.43,-212 2729.38,-211.472 2731.36,-210.842 2733.33,-210.141"/>
<polygon fill="#54c45f" stroke="#54c45f" points="2122.29,-267.013 2111.49,-265.109 2117.45,-268.242 2112.6,-269.471 2112.6,-269.471 2112.6,-269.471 2117.45,-268.242 2113.71,-273.833 2122.29,-267.013 2122.29,-267.013"/>
<polygon fill="#54c45f" stroke="#54c45f" points="2733.72,-209.981 2744.68,-210.346 2738.34,-208.082 2742.97,-206.183 2742.97,-206.183 2742.97,-206.183 2738.34,-208.082 2741.26,-202.02 2733.72,-209.981 2733.72,-209.981"/>
</g>
<!-- RailsSettings::SettingObject -->
<g id="node26" class="node"><title>RailsSettings::SettingObject</title>
<ellipse fill="none" stroke="black" cx="2054.43" cy="-194" rx="110.235" ry="18"/>
<text text-anchor="middle" x="2054.43" y="-190.3" font-family="Times,serif" font-size="14.00">RailsSettings::SettingObject</text>
</g>
<!-- Experiment&#45;&gt;RailsSettings::SettingObject -->
<g id="edge41" class="edge"><title>Experiment&#45;&gt;RailsSettings::SettingObject</title>
<path fill="none" stroke="#79c858" d="M2069.36,-256.151C2066.76,-245.489 2063.71,-233.003 2061.05,-222.103"/>
<ellipse fill="none" stroke="#79c858" cx="2070.33" cy="-260.123" rx="4.00001" ry="4.00001"/>
<polygon fill="#79c858" stroke="#79c858" points="2061.01,-221.964 2063.01,-211.182 2059.83,-217.107 2058.64,-212.25 2058.64,-212.25 2058.64,-212.25 2059.83,-217.107 2054.27,-213.317 2061.01,-221.964 2061.01,-221.964"/>
<text text-anchor="middle" x="2108.43" y="-234.3" font-family="Times,serif" font-size="14.00">setting_objects</text>
</g>
<!-- ClickMeterTrackingLink&#45;&gt;Click -->
<g id="edge42" class="edge"><title>ClickMeterTrackingLink&#45;&gt;Click</title>
<path fill="none" stroke="#38b45b" d="M1419.58,-86.1313C1380.28,-69.9611 1324.62,-47.0584 1289.53,-32.6216"/>
<ellipse fill="none" stroke="#38b45b" cx="1423.4" cy="-87.7041" rx="4.00002" ry="4.00002"/>
<polygon fill="#38b45b" stroke="#38b45b" points="1289.46,-32.5921 1281.93,-24.6253 1284.84,-30.6895 1280.21,-28.7868 1280.21,-28.7868 1280.21,-28.7868 1284.84,-30.6895 1278.5,-32.9483 1289.46,-32.5921 1289.46,-32.5921"/>
</g>
</g>
</svg>
